<?xml version="1.0" encoding="UTF-8"?>
<svg version="1.1" xmlns="http://www.w3.org/2000/svg" width="512" height="512">
<path d="M0 0 C2.43119623 1.87015094 3.64069173 3.28138345 5 6 C5.09591764 7.35534776 5.1309539 8.71526864 5.13422108 10.07400227 C5.13867892 10.93181618 5.14313676 11.78963009 5.14772969 12.67343837 C5.14745315 14.09534387 5.14745315 14.09534387 5.14717102 15.54597473 C5.15084771 16.54870963 5.1545244 17.55144453 5.1583125 18.58456534 C5.16938247 21.96629409 5.17319877 25.34799214 5.17700195 28.72973633 C5.18326404 31.14553425 5.1899106 33.56133119 5.19691467 35.97712708 C5.216166 43.24222781 5.22674602 50.50732602 5.23564246 57.77244452 C5.24002398 61.19224246 5.24539113 64.61203884 5.25063133 68.03183556 C5.26764401 79.39737152 5.28213887 90.76290651 5.28938007 102.12845325 C5.29129002 105.07855544 5.29321035 108.02865761 5.29516602 110.97875977 C5.29564976 111.71200844 5.2961335 112.44525712 5.2966319 113.20072546 C5.30493479 125.08274428 5.33027585 136.96466252 5.36274669 148.84663741 C5.39579921 161.04069072 5.41382717 173.23469287 5.41702431 185.42879122 C5.41919105 192.27735199 5.42796346 199.12576606 5.45348549 205.97428322 C5.47743213 212.4150047 5.48102952 218.85553358 5.47072411 225.29629326 C5.47022683 227.66305036 5.4766033 230.02982015 5.49028015 232.39653778 C5.50788184 235.62237061 5.50095025 238.84724212 5.48774719 242.07307434 C5.50420106 243.48494159 5.50420106 243.48494159 5.52098733 244.92533141 C5.47908947 249.15197196 5.37427297 251.39936441 3.0945158 255.05793285 C-0.04145315 257.96565132 -1.75449899 258.12632328 -5.93295765 258.13701439 C-7.50705866 258.1446262 -7.50705866 258.1446262 -9.11295968 258.15239179 C-10.27489884 258.15288955 -11.43683799 258.15338731 -12.63398743 258.15390015 C-13.86131771 258.1582824 -15.08864799 258.16266465 -16.3531701 258.1671797 C-19.77088354 258.17826214 -23.18855109 258.18479766 -26.60627592 258.18936086 C-30.2880435 258.19531029 -33.96979413 258.2069217 -37.65155029 258.21765137 C-46.54810304 258.24218933 -55.4446614 258.25680395 -64.34123757 258.26971143 C-66.85289382 258.27342215 -69.36454951 258.27739548 -71.87620521 258.2814641 C-87.46472515 258.30669784 -103.05324594 258.3287565 -118.64178181 258.34119225 C-122.25361954 258.34412206 -125.86545725 258.34708371 -129.47729492 258.35009766 C-130.37502741 258.35084371 -131.2727599 258.35158976 -132.19769641 258.35235842 C-146.74716893 258.36501766 -161.29651941 258.39824763 -175.84593485 258.43989949 C-190.77461696 258.48228774 -205.70323654 258.50588362 -220.63197869 258.51111281 C-229.01757159 258.51453032 -237.4029737 258.52632541 -245.78850746 258.55921555 C-252.92860699 258.5871745 -260.06847664 258.59823375 -267.20862667 258.58702008 C-270.85289823 258.58182278 -274.4966881 258.58478859 -278.14089012 258.60948563 C-282.08914468 258.6360204 -286.0367376 258.62395412 -289.98506165 258.60800171 C-291.14030864 258.6218838 -292.29555563 258.63576588 -293.4858101 258.65006864 C-298.29069059 258.60202119 -301.12329788 258.57030927 -305.21167183 255.9107542 C-307.43953759 252.2845911 -307.62623274 250.06866624 -307.62818909 245.81993103 C-307.63528347 245.10794306 -307.64237786 244.39595509 -307.64968723 243.66239172 C-307.66725752 241.28210599 -307.64916948 238.90345538 -307.63110352 236.52319336 C-307.63624271 234.81467445 -307.64352399 233.10616084 -307.65278625 231.3976593 C-307.67130723 226.76127149 -307.65835795 222.12545842 -307.63869596 217.4890945 C-307.62231652 212.63827639 -307.63112124 207.78749488 -307.63621521 202.93666077 C-307.64073652 194.79158337 -307.62486291 186.64673561 -307.59692383 178.50170898 C-307.564861 169.08179467 -307.56489169 159.66229427 -307.5821386 150.24235052 C-307.59799496 141.18300934 -307.59127656 132.12382007 -307.57420158 123.06448555 C-307.56732483 119.20767746 -307.5683699 115.3509909 -307.57574654 111.49418449 C-307.58340037 106.95421053 -307.57131296 102.41470844 -307.54389763 97.87481499 C-307.53700361 96.20750835 -307.53692671 94.54015773 -307.54411316 92.87285233 C-307.55278534 90.59906785 -307.53689225 88.32674722 -307.5146637 86.05308533 C-307.51185678 84.78013076 -307.50904985 83.50717619 -307.50615788 82.19564724 C-306.91087643 78.43731491 -306.02249091 77.24261068 -303 75 C-300.25097656 74.54589844 -300.25097656 74.54589844 -297.140625 74.609375 C-296.02558594 74.62226563 -294.91054688 74.63515625 -293.76171875 74.6484375 C-292.60285156 74.68195313 -291.44398438 74.71546875 -290.25 74.75 C-288.48849609 74.77707031 -288.48849609 74.77707031 -286.69140625 74.8046875 C-283.7934466 74.8518088 -280.89713582 74.91758695 -278 75 C-277.89453857 73.96931396 -277.78907715 72.93862793 -277.68041992 71.87670898 C-276.56683605 61.02354005 -275.42110192 50.17406948 -274.24993896 39.32696533 C-274.02370861 37.22073036 -273.8013364 35.11413715 -273.58056641 33.00732422 C-273.23873545 29.79411326 -272.87461013 26.5845266 -272.5 23.375 C-272.40614014 22.46032959 -272.31228027 21.54565918 -272.21557617 20.60327148 C-271.74297715 16.75720317 -271.45407323 14.58200656 -269.03125 11.4765625 C-266.01601076 9.28471552 -264.30694303 8.86838082 -260.62963867 8.82299805 C-259.27264107 8.80374519 -259.27264107 8.80374519 -257.88822937 8.78410339 C-256.90804337 8.77671646 -255.92785736 8.76932953 -254.91796875 8.76171875 C-253.91163895 8.753647 -252.90530914 8.74557526 -251.8684845 8.73725891 C-249.73582689 8.72341283 -247.60314706 8.71269303 -245.47045898 8.70483398 C-242.2109978 8.68762407 -238.95255153 8.64374247 -235.69335938 8.59960938 C-233.6224033 8.58948233 -231.55143859 8.58096626 -229.48046875 8.57421875 C-228.01929878 8.54795662 -228.01929878 8.54795662 -226.52861023 8.52116394 C-222.26345226 8.53481421 -219.67968592 8.61379158 -215.91674805 10.75195312 C-213.86233718 13.16145704 -213.26502727 14.29610959 -212.8515625 17.39453125 C-212.71395508 18.36471191 -212.57634766 19.33489258 -212.43457031 20.33447266 C-212.29116211 21.54409668 -212.14775391 22.7537207 -212 24 C-211.79599474 25.5982401 -211.59117718 27.19637664 -211.38574219 28.79443359 C-210.79842943 33.44698653 -210.24929857 38.10329126 -209.71289062 42.76196289 C-209.37451983 45.69165742 -209.02742609 48.62023246 -208.6796875 51.54882812 C-208.46041142 53.43223049 -208.24164382 55.31569214 -208.0234375 57.19921875 C-207.86879532 58.49638069 -207.86879532 58.49638069 -207.71102905 59.81974792 C-207.13220817 64.91756083 -206.90311661 69.86924774 -207 75 C-206.26885986 74.97381592 -205.53771973 74.94763184 -204.78442383 74.9206543 C-201.46066918 74.81649856 -198.13725806 74.75161379 -194.8125 74.6875 C-193.66201172 74.64560547 -192.51152344 74.60371094 -191.32617188 74.56054688 C-189.65844727 74.53637695 -189.65844727 74.53637695 -187.95703125 74.51171875 C-186.42526245 74.47244263 -186.42526245 74.47244263 -184.86254883 74.43237305 C-182 75 -182 75 -177 80 C-176.67 86.6 -176.34 93.2 -176 100 C-140.36 90.1 -140.36 90.1 -104 80 C-103.82955984 63.72527231 -103.82955984 63.72527231 -103.70214844 47.45019531 C-103.67278339 45.40948217 -103.64195845 43.36878929 -103.609375 41.328125 C-103.60824707 40.26899902 -103.60711914 39.20987305 -103.60595703 38.11865234 C-103.5861377 37.10399902 -103.56631836 36.0893457 -103.54589844 35.04394531 C-103.53701599 34.16458313 -103.52813354 33.28522095 -103.51898193 32.37921143 C-102.82241712 29.18589224 -101.52634376 28.02181208 -99 26 C-96.98899841 25.0610199 -96.98899841 25.0610199 -94.80639648 24.42749023 C-93.96254898 24.17596695 -93.11870148 23.92444366 -92.24928284 23.66529846 C-91.32010544 23.40321091 -90.39092804 23.14112335 -89.43359375 22.87109375 C-88.43742538 22.57939804 -87.44125702 22.28770233 -86.41490173 21.98716736 C-82.9472301 20.97719394 -79.47387789 19.98840499 -76 19 C-74.6771836 18.61948725 -73.3545359 18.23838765 -72.03204346 17.85675049 C-63.24793688 15.32222661 -54.45353298 12.82615207 -45.65161133 10.35424805 C-41.78639973 9.268147 -37.92475387 8.16985574 -34.06366825 7.06919193 C-31.04832865 6.21211096 -28.03044646 5.36427074 -25.0118084 4.51888847 C-23.58559201 4.11772265 -22.160344 3.71309563 -20.73616219 3.3047657 C-6.60509091 -0.7406784 -6.60509091 -0.7406784 0 0 Z M-22.66455078 21.72827148 C-23.3251651 21.91198303 -23.98577942 22.09569458 -24.66641235 22.28497314 C-26.84415162 22.89199158 -29.01972482 23.50641257 -31.1953125 24.12109375 C-32.70927087 24.54507663 -34.22334114 24.96866014 -35.73751831 25.39186096 C-38.90745563 26.27898271 -42.07640578 27.16952012 -45.24462891 28.06274414 C-49.3099311 29.20880362 -53.37697369 30.34852937 -57.4446888 31.48599148 C-60.56949252 32.36013127 -63.69366731 33.23649994 -66.81762314 34.11366463 C-68.3174513 34.53473245 -69.81740278 34.95536124 -71.31747818 35.37554741 C-73.41033025 35.96237385 -75.50239367 36.55192784 -77.59423828 37.14233398 C-78.78574493 37.47764633 -79.97725159 37.81295868 -81.2048645 38.15843201 C-83.9217037 38.88986751 -83.9217037 38.88986751 -86 40 C-86 106.33 -86 172.66 -86 241 C-61.58 241 -37.16 241 -12 241 C-12 168.07 -12 95.14 -12 20 C-16.00473199 20 -18.82632934 20.65212388 -22.66455078 21.72827148 Z M-255 26 C-257.44570475 42.30469831 -259.3033099 58.59866232 -261 75 C-248.79 75 -236.58 75 -224 75 C-224.76209904 63.01449308 -224.76209904 63.01449308 -225.97265625 51.09765625 C-226.06002548 50.36421494 -226.14739471 49.63077362 -226.2374115 48.87510681 C-226.50880029 46.60378227 -226.78550875 44.33314731 -227.0625 42.0625 C-227.25101008 40.49288162 -227.43916287 38.92322029 -227.62695312 37.35351562 C-228.07988885 33.56840957 -228.54006677 29.78428781 -229 26 C-237.58 26 -246.16 26 -255 26 Z M-290 92 C-290 141.17 -290 190.34 -290 241 C-285.05 241 -280.1 241 -275 241 C-274.99635437 239.86882751 -274.99270874 238.73765503 -274.98895264 237.57220459 C-274.95203245 226.91878914 -274.89429241 216.26566354 -274.81609726 205.61246872 C-274.77656592 200.13535096 -274.74440518 194.65839533 -274.72900391 189.18115234 C-274.71387462 183.89657754 -274.6794954 178.61244832 -274.63169098 173.32807159 C-274.61683866 171.31067017 -274.60895679 169.29320513 -274.60811615 167.27574921 C-274.60575632 164.45255364 -274.57875638 161.6305994 -274.54589844 158.80761719 C-274.5509288 157.97108109 -274.55595917 157.13454498 -274.56114197 156.2726593 C-274.49757359 152.74906625 -274.29674204 150.44299994 -272.31257629 147.48088074 C-269.47348043 145.66283807 -267.81330923 145.49886261 -264.45288086 145.49829102 C-263.34170395 145.48891006 -262.23052704 145.47952911 -261.0856781 145.46986389 C-259.2933651 145.48671486 -259.2933651 145.48671486 -257.46484375 145.50390625 C-256.23464005 145.50245102 -255.00443634 145.50099579 -253.73695374 145.49949646 C-251.13703034 145.5011562 -248.5370972 145.51272564 -245.93725586 145.53344727 C-243.26807635 145.55283519 -240.60134998 145.56315929 -237.93237305 145.55395508 C-234.08879446 145.54138894 -230.24589755 145.55001627 -226.40234375 145.56640625 C-225.20544418 145.56347061 -224.00854462 145.56053497 -222.77537537 145.55751038 C-221.66735062 145.57019455 -220.55932587 145.58287872 -219.41772461 145.59594727 C-218.44161728 145.60135025 -217.46550995 145.60675323 -216.45982361 145.61231995 C-213.57482947 146.06700892 -212.71241783 146.67425525 -211 149 C-209.71742048 152.84773857 -209.82278585 156.49885763 -209.79467773 160.51049805 C-209.78477814 161.37900391 -209.77487854 162.24750977 -209.76467896 163.14233398 C-209.73307056 166.01543443 -209.70830908 168.88855142 -209.68359375 171.76171875 C-209.66302366 173.75283744 -209.64202717 175.74395177 -209.62062073 177.73506165 C-209.56540579 182.97767608 -209.51599392 188.22032988 -209.46777344 193.4630127 C-209.41755423 198.81196602 -209.36187035 204.16086211 -209.30664062 209.50976562 C-209.1990661 220.00646154 -209.09761952 230.50320712 -209 241 C-204.05 241 -199.1 241 -194 241 C-194 191.83 -194 142.66 -194 92 C-225.68 92 -257.36 92 -290 92 Z M-111.72875977 99.82006836 C-112.41994904 100.01353348 -113.11113831 100.2069986 -113.82327271 100.40632629 C-116.11341033 101.04815942 -118.40243856 101.69385172 -120.69140625 102.33984375 C-122.27795242 102.78598567 -123.86453637 103.23199327 -125.45115662 103.6778717 C-128.77807195 104.61349966 -132.10442587 105.55109278 -135.43041992 106.48999023 C-139.70238244 107.69570402 -143.97583606 108.89603441 -148.24974155 110.09484005 C-151.52652233 111.01468584 -154.8024264 111.93762218 -158.07807732 112.86148262 C-159.65392391 113.30547287 -161.23006224 113.74842896 -162.80648994 114.19035149 C-165.00544971 114.80723509 -167.20318002 115.42831707 -169.40063477 116.05053711 C-170.65368912 116.40361435 -171.90674347 116.75669159 -173.19776917 117.12046814 C-175.87875442 117.72445353 -175.87875442 117.72445353 -177 119 C-177.09594225 120.58154848 -177.1218796 122.16739125 -177.12025452 123.75184631 C-177.12162918 124.77974777 -177.12300385 125.80764923 -177.12442017 126.86669922 C-177.12082489 128.00389404 -177.11722961 129.14108887 -177.11352539 130.31274414 C-177.11367142 131.50282578 -177.11381744 132.69290741 -177.1139679 133.91905212 C-177.11338894 137.19163274 -177.10835981 140.46417107 -177.10139394 143.73674321 C-177.09515967 147.15338665 -177.09455654 150.57003083 -177.09336853 153.98667908 C-177.09025543 160.46069267 -177.08204233 166.93468946 -177.07201904 173.40869564 C-177.05976314 181.49967408 -177.05427528 189.59065523 -177.04882812 197.68164062 C-177.0390769 212.12110686 -177.01904663 226.56053639 -177 241 C-152.58 241 -128.16 241 -103 241 C-103 193.81 -103 146.62 -103 98 C-106.06558343 98 -108.78090072 98.99183796 -111.72875977 99.82006836 Z M-258 162 C-258 188.07 -258 214.14 -258 241 C-247.44 241 -236.88 241 -226 241 C-226 214.93 -226 188.86 -226 162 C-236.56 162 -247.12 162 -258 162 Z " fill="#FEFEFE" transform="translate(434,61)"/>
<path d="M0 0 C1.27577911 -0.00708481 2.55155823 -0.01416962 3.86599731 -0.02146912 C5.27761876 -0.01917534 6.68923987 -0.01666564 8.1008606 -0.01396179 C9.589236 -0.01830958 11.07760917 -0.02349295 12.565979 -0.02944946 C16.60736363 -0.04284462 20.64865477 -0.04341749 24.69005728 -0.04088616 C28.06477586 -0.03981665 31.4394755 -0.0446994 34.81419003 -0.04949158 C42.77694878 -0.06058888 50.73966035 -0.06102314 58.7024231 -0.05497742 C66.91400027 -0.04893856 75.12540606 -0.06124584 83.336954 -0.08254749 C90.38931046 -0.10016865 97.4416124 -0.10616397 104.49399006 -0.10290974 C108.70502387 -0.10109732 112.91593546 -0.10372881 117.12694931 -0.11762428 C121.08817549 -0.13020616 125.04913479 -0.12825524 129.0103569 -0.11521339 C130.46236766 -0.11284871 131.91439721 -0.11557846 133.36638641 -0.12383652 C135.3521431 -0.13431393 137.33797589 -0.12439514 139.32373047 -0.11352539 C140.43390471 -0.11369313 141.54407894 -0.11386087 142.68789482 -0.1140337 C147.96014375 0.52308326 151.80190925 2.70556691 155.10134888 6.82319641 C155.59248169 7.42261047 156.0836145 8.02202454 156.58963013 8.63960266 C158.78023983 11.6008503 158.92029161 13.51891983 158.94274902 17.15489197 C158.95134949 18.18943512 158.95994995 19.22397827 158.96881104 20.28987122 C158.97520096 21.99947021 158.97520096 21.99947021 158.98171997 23.74360657 C158.98989746 24.94049103 158.99807495 26.13737549 159.00650024 27.37052917 C159.03139133 31.34693566 159.04803316 35.32330403 159.06228638 39.29975891 C159.06764668 40.66967653 159.0730242 42.03959408 159.07841873 43.40951157 C159.10005261 49.11074473 159.11878667 54.81197507 159.13004112 60.51323891 C159.14626138 68.67599965 159.17938567 76.83828292 159.23644197 85.00086367 C159.27520977 90.74365665 159.29468212 96.48632232 159.29996169 102.22924268 C159.30360724 105.65694289 159.31554115 109.08413393 159.34806442 112.51169205 C159.37967825 116.34196941 159.37975709 120.17104551 159.37234497 124.00141907 C159.38875031 125.12900635 159.40515564 126.25659363 159.42205811 127.41835022 C159.3677149 134.28737098 158.36458233 138.99510228 153.78884888 144.26069641 C147.42378256 149.68438929 139.8713853 148.92730587 131.85134888 149.01069641 C130.48607721 149.03889312 129.12084023 149.06882567 127.75564575 149.10054016 C124.43332094 149.17097814 121.11168751 149.22380778 117.78884888 149.26069641 C117.41119385 150.06168762 117.41119385 150.06168762 117.02590942 150.87886047 C113.3018535 158.58452876 108.68660063 164.36535282 100.50759888 167.60054016 C92.2606654 169.60302832 83.22129024 169.516915 75.64822388 165.45991516 C70.53804433 162.16406406 66.81820267 158.64621427 63.78884888 153.26069641 C63.45884888 151.61069641 63.12884888 149.96069641 62.78884888 148.26069641 C18.23884888 148.75569641 18.23884888 148.75569641 -27.21115112 149.26069641 C-28.53115112 151.90069641 -29.85115112 154.54069641 -31.21115112 157.26069641 C-35.27898685 162.76365667 -40.5384403 166.64045485 -47.21115112 168.26069641 C-58.05726894 169.40425449 -65.53021138 168.08440585 -74.46115112 162.07319641 C-77.89761267 158.55863346 -82.21115112 153.43427372 -82.21115112 148.26069641 C-83.22435425 148.30710266 -84.23755737 148.35350891 -85.28146362 148.40132141 C-86.63299644 148.43886399 -87.9845614 148.47526147 -89.33615112 148.51069641 C-90.00130737 148.54421204 -90.66646362 148.57772766 -91.35177612 148.61225891 C-96.52466067 148.71368802 -99.3422256 147.65833639 -103.21115112 144.26069641 C-108.48768363 137.59163676 -107.81234535 130.17030268 -107.77755737 122.05366516 C-107.78280076 120.56304539 -107.78907985 119.07242894 -107.79634094 117.58181763 C-107.80672034 114.46411991 -107.80222194 111.34687927 -107.78756714 108.22920227 C-107.77041768 104.25813747 -107.79383787 100.28852494 -107.82905674 96.31762218 C-107.85115585 93.24007809 -107.8495588 90.16287449 -107.84129143 87.08527565 C-107.84047804 85.62262191 -107.84722285 84.15994159 -107.86206245 82.6973629 C-107.93884928 73.7575374 -107.11764233 66.91991145 -102.21115112 59.26069641 C-101.6008606 58.2009259 -100.99057007 57.1411554 -100.36178589 56.04927063 C-99.51571777 54.6959967 -99.51571777 54.6959967 -98.65255737 53.31538391 C-98.01898315 52.30089172 -97.38540894 51.28639954 -96.7326355 50.24116516 C-96.08617065 49.21636047 -95.43970581 48.19155579 -94.77365112 47.13569641 C-93.80975464 45.58688782 -93.80975464 45.58688782 -92.8263855 44.00679016 C-90.984375 41.07079374 -89.11151759 38.15920897 -87.21115112 35.26069641 C-86.70696655 34.48629211 -86.20278198 33.71188782 -85.68331909 32.91401672 C-82.30316015 28.04083049 -78.74358279 24.56324634 -73.21115112 22.26069641 C-68.99838432 21.60911997 -64.87173184 21.67609998 -60.61740112 21.77241516 C-59.43013428 21.7794899 -58.24286743 21.78656464 -57.0196228 21.79385376 C-53.24947541 21.82171054 -49.48084521 21.88443786 -45.71115112 21.94819641 C-43.14606849 21.97329031 -40.58096245 21.99610156 -38.01583862 22.01655579 C-31.74709695 22.07150891 -25.47923246 22.15504975 -19.21115112 22.26069641 C-19.22557251 20.99000305 -19.2399939 19.71930969 -19.25485229 18.41011047 C-19.31032767 13.52207897 -17.96908543 10.27710559 -15.21115112 6.26069641 C-10.38034673 1.67143224 -6.63651256 0.01228019 0 0 Z M-2.21115112 18.26069641 C-2.30680235 19.72818601 -2.33303421 21.20026525 -2.33140564 22.67086792 C-2.3327803 23.62304199 -2.33415497 24.57521606 -2.33557129 25.5562439 C-2.33197601 26.60928207 -2.32838074 27.66232025 -2.32467651 28.74726868 C-2.32482254 29.84956818 -2.32496857 30.95186768 -2.32511902 32.08757019 C-2.32441934 35.75076733 -2.31662436 39.41391435 -2.30880737 43.07710266 C-2.30694339 45.60916109 -2.30551939 48.14121989 -2.30451965 50.67327881 C-2.30108458 56.6691789 -2.29319381 62.66505731 -2.28317016 68.66094869 C-2.2720079 75.48550699 -2.26649829 82.31006613 -2.26147473 89.13463128 C-2.25101116 103.17666305 -2.23341243 117.21867874 -2.21115112 131.26069641 C6.15981398 131.49276423 14.5294287 131.67025017 22.90281868 131.77881813 C26.79144276 131.83093745 30.67786156 131.90156616 34.56521606 132.01509094 C38.31961428 132.12404221 42.07189768 132.18359219 45.82775497 132.20946884 C47.25775338 132.22789754 48.68764022 132.26389225 50.11673355 132.31799698 C54.51084582 132.47768437 58.54958521 132.48788072 62.78884888 131.26069641 C65.73926577 128.25861315 67.13507593 125.07792391 68.78884888 121.26069641 C74.11316351 115.56491797 82.0147433 112.17290295 89.85134888 111.82319641 C97.6313377 112.68763961 105.10062446 114.60141971 110.78884888 120.26069641 C113.40772876 123.73666425 115.41153242 127.12874703 116.78884888 131.26069641 C125.03884888 131.26069641 133.28884888 131.26069641 141.78884888 131.26069641 C141.78884888 93.64069641 141.78884888 56.02069641 141.78884888 17.26069641 C116.39724887 17.23158163 116.39724887 17.23158163 91.00564575 17.21186829 C80.65725206 17.20592506 70.30886649 17.19892275 59.96047974 17.18525696 C52.42520309 17.1753108 44.88993299 17.16884315 37.35464996 17.16660792 C33.36229035 17.16530069 29.36994951 17.16221411 25.3775959 17.15496635 C21.6241779 17.14820721 17.87078649 17.14607923 14.11736298 17.14758873 C12.73581994 17.14731235 11.35427606 17.1453066 9.97273827 17.14149094 C8.09447743 17.13655542 6.2162025 17.13829845 4.3379364 17.14044189 C2.75752233 17.13905921 2.75752233 17.13905921 1.1451807 17.13764858 C-1.16845793 16.99491331 -1.16845793 16.99491331 -2.21115112 18.26069641 Z M-75.21115112 48.26069641 C-76.17951904 49.74255432 -76.17951904 49.74255432 -77.16744995 51.25434875 C-77.9103125 52.53752991 -77.9103125 52.53752991 -78.66818237 53.84663391 C-79.22312378 54.79667297 -79.77806519 55.74671204 -80.349823 56.72554016 C-80.90218628 57.68589172 -81.45454956 58.64624329 -82.02365112 59.63569641 C-83.15457738 61.58134858 -84.28606255 63.526676 -85.41818237 65.47163391 C-85.90778442 66.32032043 -86.39738647 67.16900696 -86.90182495 68.04341125 C-87.94899704 69.81675022 -89.06877836 71.54713727 -90.21115112 73.26069641 C-90.48825475 76.3654959 -90.48825475 76.3654959 -90.40646362 79.89741516 C-90.40001831 81.19614563 -90.393573 82.4948761 -90.38693237 83.83296204 C-90.37022173 85.20470948 -90.35329184 86.57645427 -90.33615112 87.94819641 C-90.32611786 89.3316536 -90.31699261 90.71511768 -90.30880737 92.09858704 C-90.2852008 95.48613093 -90.25227149 98.87332713 -90.21115112 102.26069641 C-86.91115112 102.92069641 -83.61115112 103.58069641 -80.21115112 104.26069641 C-78.73602086 108.14261814 -78.02257937 110.49190387 -79.02365112 114.57319641 C-82.2668829 118.55773831 -85.2023996 118.53479039 -90.21115112 119.26069641 C-90.21115112 123.22069641 -90.21115112 127.18069641 -90.21115112 131.26069641 C-86.13154667 131.99180356 -86.13154667 131.99180356 -82.21115112 131.26069641 C-80.38033283 128.9338436 -79.13665531 126.49373269 -77.76193237 123.87397766 C-74.14246435 117.7746726 -68.0911606 114.64354529 -61.42599487 112.72944641 C-53.53699126 111.05981602 -46.0610166 112.65518358 -39.00802612 116.44429016 C-33.92928109 119.86565847 -31.514371 123.72917313 -29.02365112 129.28413391 C-28.42552612 129.93639954 -27.82740112 130.58866516 -27.21115112 131.26069641 C-24.57115112 131.26069641 -21.93115112 131.26069641 -19.21115112 131.26069641 C-19.21115112 100.90069641 -19.21115112 70.54069641 -19.21115112 39.26069641 C-31.12208862 38.98225891 -31.12208862 38.98225891 -43.27365112 38.69819641 C-47.01527588 38.57529236 -47.01527588 38.57529236 -50.83248901 38.4499054 C-52.82455089 38.42360364 -54.81666136 38.40067346 -56.80880737 38.38179016 C-57.83099365 38.33574646 -58.85317993 38.28970276 -59.90634155 38.24226379 C-68.24951929 38.23313448 -71.07262197 41.2697396 -75.21115112 48.26069641 Z M-64.52365112 133.44819641 C-66.7025558 137.0797042 -67.15911954 140.18204237 -66.21115112 144.26069641 C-64.44966677 147.27666961 -62.38374235 149.6744008 -59.21115112 151.26069641 C-54.67193212 151.80468926 -51.25672422 151.88359102 -47.27365112 149.51069641 C-44.81381285 146.82723647 -43.33943863 144.7547113 -43.02365112 141.07710266 C-43.39310063 136.63601166 -43.80971822 134.71947688 -46.83615112 131.26069641 C-54.1962536 126.8991542 -58.5357804 127.78399437 -64.52365112 133.44819641 Z M81.78884888 131.26069641 C78.88596551 134.64739368 78.2068664 137.7933772 78.35916138 142.26069641 C79.13489381 145.87137826 81.17937069 147.71334866 83.78884888 150.26069641 C87.25412712 151.99333553 90.99991916 151.73267382 94.78884888 151.26069641 C97.90953743 149.46796043 99.3384994 148.01810236 101.16384888 144.94819641 C102.27458431 140.17203405 101.62002858 136.59652094 99.03884888 132.44819641 C93.5660617 127.1274311 88.12243127 127.35274132 81.78884888 131.26069641 Z " fill="#FEFEFE" transform="translate(325.2111511230469,335.7393035888672)"/>
<path d="M0 0 C8.83748268 6.09137224 14.18415496 15.15453621 16.2890625 25.609375 C18.53598264 42.4291772 14.77518248 57.86661875 4.6015625 71.48828125 C2.69921875 73.6796875 2.69921875 73.6796875 0.69921875 74.6796875 C1.38322754 74.8247876 2.06723633 74.9698877 2.77197266 75.11938477 C38.03658275 82.73030238 38.03658275 82.73030238 47.69921875 94.6796875 C52.93402618 103.11290474 54.80004793 110.44481105 54.86035156 120.34594727 C54.86995911 121.62740128 54.87956665 122.90885529 54.88946533 124.22914124 C54.89431229 125.60979024 54.89859137 126.99044134 54.90234375 128.37109375 C54.90658482 129.42590596 54.90658482 129.42590596 54.91091156 130.50202751 C54.92583206 134.21774539 54.93510867 137.93342509 54.93945312 141.64916992 C54.94495165 145.4745153 54.96902874 149.29950727 54.99742508 153.12474155 C55.01608498 156.08022581 55.02125866 159.03562507 55.022789 161.99116325 C55.02580452 163.40130499 55.0337957 164.81144563 55.04697418 166.22152901 C55.06411596 168.19522111 55.06029791 170.16906116 55.05566406 172.14282227 C55.06113251 173.82324364 55.06113251 173.82324364 55.06671143 175.53761292 C54.6432196 179.15848209 53.57646602 181.57115575 51.69921875 184.6796875 C49.02568455 186.0164546 46.97587173 185.81480937 43.98086548 185.82685852 C42.15533394 185.83759148 42.15533394 185.83759148 40.29292297 185.84854126 C38.93698146 185.85138162 37.58103966 185.85409334 36.22509766 185.85668945 C34.80273777 185.86295316 33.38037952 185.86959987 31.95802307 185.87660217 C28.08816734 185.89401864 24.21832396 185.90456534 20.34843874 185.9128077 C17.93189942 185.91795572 15.51536396 185.92403149 13.09882736 185.93031883 C5.54149936 185.94937137 -2.01581885 185.96360326 -9.57316625 185.9719308 C-18.30355871 185.98170927 -27.03369803 186.00804424 -35.76400125 186.04843169 C-42.50799954 186.07856235 -49.25192513 186.0933967 -55.99598944 186.09671181 C-60.02596803 186.0990655 -64.05567621 186.108067 -68.08558273 186.13317299 C-71.87609672 186.15640617 -75.66616133 186.16070646 -79.45672798 186.15041161 C-80.84831421 186.14991499 -82.2399222 186.15627246 -83.63144112 186.16996765 C-85.53036586 186.18761186 -87.4294846 186.17821949 -89.32846069 186.16743469 C-90.39145575 186.16982305 -91.4544508 186.1722114 -92.54965782 186.17467213 C-96.01064565 185.55196805 -97.18918384 184.44610288 -99.30078125 181.6796875 C-99.81544495 178.41867065 -99.81544495 178.41867065 -99.83422852 174.49951172 C-99.84284409 173.78347275 -99.85145966 173.06743378 -99.8603363 172.32969666 C-99.88302149 169.9642205 -99.87624893 167.59992775 -99.8671875 165.234375 C-99.87242521 163.58252614 -99.87870223 161.93068028 -99.88597107 160.27883911 C-99.89638238 156.81367953 -99.89180842 153.34893032 -99.87719727 149.88378906 C-99.86008315 145.46541071 -99.88340799 141.04834182 -99.91868687 136.63010979 C-99.94077302 133.21543932 -99.93919124 129.80107609 -99.93092155 126.38635635 C-99.93010669 124.75903012 -99.93688032 123.13168026 -99.95169258 121.50442123 C-100.02315857 112.22500539 -99.6451279 104.649215 -94.30078125 96.6796875 C-93.74390625 95.7928125 -93.18703125 94.9059375 -92.61328125 93.9921875 C-80.02484576 81.40375201 -63.02819716 78.36868647 -46.30078125 74.6796875 C-46.82027344 74.15761719 -47.33976562 73.63554687 -47.875 73.09765625 C-57.88799714 62.52940973 -62.27707754 49.62653554 -62.67578125 35.1171875 C-62.31563066 22.66197968 -58.72642481 11.53545137 -49.55078125 2.8046875 C-45.25350387 -0.69924636 -40.55502354 -2.65825626 -35.30078125 -4.3203125 C-34.7078125 -4.51238281 -34.11484375 -4.70445312 -33.50390625 -4.90234375 C-22.13860448 -7.05852689 -10.05574469 -5.77052921 0 0 Z M-41.80078125 19.4921875 C-46.8078954 30.13230508 -46.20686837 40.69290312 -42.30078125 51.6796875 C-38.96816288 58.19746326 -34.46063203 64.29307057 -27.30078125 66.6796875 C-21.90400259 67.31767878 -17.51423352 67.04444051 -12.92578125 63.99609375 C-5.52497374 58.00072805 -1.81662789 50.00575351 -0.30078125 40.6796875 C0.36692244 32.20498677 -0.65619116 25.25686266 -4.92578125 17.8671875 C-11.09536882 12.18467263 -17.83272678 10.95060544 -26.07421875 11.23046875 C-32.56607984 12.13429929 -37.45366074 14.60167693 -41.80078125 19.4921875 Z M-78.07421875 104.15234375 C-84.24391971 110.83915837 -83.57401933 119.4780824 -83.49609375 127.95703125 C-83.49326385 129.123517 -83.49043396 130.29000275 -83.48751831 131.49183655 C-83.47636513 135.20039326 -83.45126911 138.90870435 -83.42578125 142.6171875 C-83.41574518 145.13866838 -83.40662043 147.66015305 -83.3984375 150.18164062 C-83.37644165 156.34775022 -83.34194498 162.51367728 -83.30078125 168.6796875 C-78.35078125 168.6796875 -73.40078125 168.6796875 -68.30078125 168.6796875 C-68.27890747 166.74935669 -68.27890747 166.74935669 -68.2565918 164.7800293 C-68.19866977 160.010702 -68.12143662 155.24184988 -68.03833008 150.47290039 C-68.00505201 148.4078746 -67.97702911 146.34275723 -67.9543457 144.27758789 C-67.9208527 141.31096318 -67.8685398 138.34518002 -67.8125 135.37890625 C-67.80611008 134.4538176 -67.79972015 133.52872894 -67.7931366 132.5756073 C-67.77334244 131.71494156 -67.75354828 130.85427582 -67.7331543 129.9675293 C-67.71649971 128.83168648 -67.71649971 128.83168648 -67.69950867 127.67289734 C-67.19357829 125.14378757 -66.30135671 124.26245426 -64.30078125 122.6796875 C-61.31651105 121.65875296 -59.68026782 121.58260954 -56.61328125 122.3671875 C-53.89206428 123.911662 -53.44589838 124.82593665 -52.30078125 127.6796875 C-52.02230835 129.71722412 -52.02230835 129.71722412 -51.98193359 131.89746094 C-51.95184204 133.145354 -51.95184204 133.145354 -51.92114258 134.41845703 C-51.90410278 135.71565674 -51.90410278 135.71565674 -51.88671875 137.0390625 C-51.86907471 137.84102051 -51.85143066 138.64297852 -51.83325195 139.46923828 C-51.77033724 142.45585329 -51.7240454 145.44279982 -51.67578125 148.4296875 C-51.55203125 155.1121875 -51.42828125 161.7946875 -51.30078125 168.6796875 C-32.49078125 168.6796875 -13.68078125 168.6796875 5.69921875 168.6796875 C5.94859738 155.7410297 5.94859738 155.7410297 6.17724609 142.80200195 C6.21246803 141.17397453 6.24839105 139.54596206 6.28515625 137.91796875 C6.29651611 137.07987671 6.30787598 136.24178467 6.31958008 135.3782959 C6.5168592 127.39799873 6.5168592 127.39799873 8.69921875 123.6796875 C12.40490411 122.07155989 14.63169913 121.40120412 18.57421875 122.4296875 C20.69921875 123.6796875 20.69921875 123.6796875 21.69921875 125.6796875 C21.81648534 127.06786423 21.87603281 128.46117464 21.90454102 129.85400391 C21.93445885 131.14511581 21.93445885 131.14511581 21.96498108 132.46231079 C21.98169357 133.39256073 21.99840607 134.32281067 22.015625 135.28125 C22.0364061 136.23285004 22.05718719 137.18445007 22.07859802 138.16488647 C22.14410008 141.21141182 22.20298155 144.25802493 22.26171875 147.3046875 C22.30490334 149.36719666 22.34851761 151.42969687 22.39257812 153.4921875 C22.49978215 158.55459704 22.60104777 163.61709505 22.69921875 168.6796875 C27.64921875 168.6796875 32.59921875 168.6796875 37.69921875 168.6796875 C37.77357505 161.13576393 37.82791931 153.59205542 37.86401367 146.04785156 C37.87906654 143.48336062 37.89951336 140.91889527 37.92553711 138.35449219 C37.96207342 134.66074287 37.97898069 130.96733504 37.9921875 127.2734375 C38.00767136 126.1335437 38.02315521 124.9936499 38.03910828 123.81921387 C38.04059353 116.73674651 37.61850326 110.67235796 33.296875 104.76171875 C8.85621376 84.549976 -53.10205017 83.41554297 -78.07421875 104.15234375 Z " fill="#FEFEFE" transform="translate(107.30078125,298.3203125)"/>
<path d="M0 0 C2.55786133 1.37939453 2.55786133 1.37939453 5.08203125 3.1328125 C6.01466797 3.77476562 6.94730469 4.41671875 7.90820312 5.078125 C9.34583008 6.09132812 9.34583008 6.09132812 10.8125 7.125 C11.75931641 7.77726563 12.70613281 8.42953125 13.68164062 9.1015625 C18.21601609 12.24722697 22.7009324 15.46124957 27.12109375 18.765625 C28.20088501 19.5704834 28.20088501 19.5704834 29.30249023 20.39160156 C31 22 31 22 32.25 25.625 C31.96302802 29.49912177 31.27644713 30.88546374 29 34 C26.83331337 35.75491813 24.7325052 37.3207925 22.42578125 38.86328125 C21.78311813 39.30012741 21.14045502 39.73697357 20.47831726 40.1870575 C19.12107303 41.10411163 17.7601255 42.01570587 16.39575195 42.92211914 C14.32260247 44.30575752 12.27188956 45.71883928 10.22070312 47.13476562 C8.89448834 48.02531555 7.56705164 48.91404902 6.23828125 49.80078125 C5.63276932 50.22257156 5.02725739 50.64436188 4.40339661 51.07893372 C-0.23333672 54.09719846 -3.47809743 54.58345592 -9 54 C-12.24985922 51.31886615 -12.89575014 49.64866582 -13.5625 45.5 C-12.85937571 41.1250044 -11.39240693 39.74623418 -8 37 C-7.34 36.67 -6.68 36.34 -6 36 C-27.78 35.505 -27.78 35.505 -50 35 C-49.97381592 38.36662842 -49.94763184 41.73325684 -49.9206543 45.2019043 C-49.83785313 56.31782253 -49.78259526 67.4337543 -49.74093914 78.5498991 C-49.71516636 85.29050613 -49.68003433 92.03082084 -49.62280273 98.77124023 C-49.56761068 105.2745587 -49.53858821 111.77768737 -49.52561378 118.28122902 C-49.51636614 120.76400347 -49.49830787 123.24676105 -49.47134972 125.72940636 C-49.43511989 129.20367915 -49.43005237 132.67669214 -49.43237305 136.15112305 C-49.41439667 137.18042938 -49.39642029 138.20973572 -49.37789917 139.27023315 C-49.4120296 143.9839083 -49.45260071 146.25831468 -52.31672668 150.13899231 C-55.87455124 152.60655267 -57.75528085 152.75798556 -62 152 C-64.67930603 150.19714355 -64.67930603 150.19714355 -67 147 C-67.74707098 143.0778564 -67.67251897 139.20316868 -67.63110352 135.22070312 C-67.63825882 134.02831528 -67.64541412 132.83592743 -67.65278625 131.60740662 C-67.66678232 128.34471219 -67.65838034 125.08304685 -67.63869596 121.82040977 C-67.62228522 118.40211442 -67.6311257 114.98386995 -67.63621521 111.56555176 C-67.64073351 105.82563221 -67.62488313 100.08603882 -67.59692383 94.34619141 C-67.56487272 87.71530582 -67.56488827 81.0850084 -67.5821386 74.45408106 C-67.5980166 68.06867269 -67.59126207 61.68347943 -67.57420158 55.29808044 C-67.56733885 52.58363602 -67.5683554 49.86936443 -67.57574654 47.15492249 C-67.58119047 43.36267543 -67.56084723 39.57142987 -67.53344727 35.77929688 C-67.53997314 34.65498764 -67.54649902 33.53067841 -67.55322266 32.37229919 C-67.45997838 24.79087884 -67.45997838 24.79087884 -65.15415955 20.82629395 C-61.8123328 17.99309713 -59.020161 17.86494329 -54.79418945 17.79467773 C-53.20287956 17.7647599 -53.20287956 17.7647599 -51.579422 17.73423767 C-50.43559555 17.71752518 -49.2917691 17.70081268 -48.11328125 17.68359375 C-46.35506294 17.6524221 -46.35506294 17.6524221 -44.56132507 17.62062073 C-40.81177714 17.55516182 -37.06215837 17.49625704 -33.3125 17.4375 C-30.77277909 17.39431132 -28.23306538 17.35069692 -25.69335938 17.30664062 C-19.46231478 17.19948414 -13.23119949 17.0977108 -7 17 C-7.804375 16.38125 -8.60875 15.7625 -9.4375 15.125 C-12 13 -12 13 -13 11 C-13.57801822 4.75740319 -13.57801822 4.75740319 -11.1875 1.625 C-7.23724147 -1.30947776 -4.63920946 -1.12388929 0 0 Z " fill="#FEFEFE" transform="translate(83,163)"/>
<path d="M0 0 C1.23234375 -0.020625 2.4646875 -0.04125 3.734375 -0.0625 C4.92289062 -0.06765625 6.11140625 -0.0728125 7.3359375 -0.078125 C8.96474854 -0.09214355 8.96474854 -0.09214355 10.62646484 -0.10644531 C14.02342662 0.29736223 15.89103733 1.22798755 18.625 3.25 C19.75281349 5.50562697 19.76103654 6.74555251 19.78321838 9.24893188 C19.7930072 10.08468246 19.80279602 10.92043304 19.81288147 11.7815094 C19.82151466 13.15930824 19.82151466 13.15930824 19.83032227 14.56494141 C19.84022186 15.53083694 19.85012146 16.49673248 19.86032104 17.49189758 C19.89199216 20.69509401 19.91671565 23.89830528 19.94140625 27.1015625 C19.96197093 29.31831251 19.98296727 31.53505855 20.00437927 33.75180054 C20.05965012 39.59449051 20.10903727 45.43721616 20.15722656 51.27996826 C20.20740502 57.23876125 20.26311014 63.19750225 20.31835938 69.15625 C20.42600226 80.85412228 20.52743359 92.55203965 20.625 104.25 C21.40875 103.280625 22.1925 102.31125 23 101.3125 C25.35787314 98.39618322 26.58497676 97.36555814 30.4375 96.9375 C34.53948247 97.33965514 35.98770753 98.06973555 38.625 101.25 C39.54132316 105.96268782 39.12639974 110.05217835 36.5703125 114.13671875 C35.65167118 115.41929359 34.71044562 116.68592328 33.75 117.9375 C33.25693359 118.61377441 32.76386719 119.29004883 32.25585938 119.98681641 C31.23366239 121.3872785 30.20331253 122.78182491 29.16503906 124.17041016 C27.66365335 126.1978045 26.21149417 128.25154798 24.7734375 130.32421875 C23.89072954 131.59121867 23.00792155 132.85814891 22.125 134.125 C21.71652832 134.71369873 21.30805664 135.30239746 20.88720703 135.90893555 C18.94104191 138.65007619 17.46165686 140.35889543 14.625 142.25 C10.95413128 142.72880896 9.24001765 142.67233807 6.15625 140.5546875 C3.5563549 138.18749906 1.8788433 135.9631097 0 133 C-2.35168592 129.31929618 -4.73038135 125.72872331 -7.3359375 122.22265625 C-7.83915527 121.53268555 -8.34237305 120.84271484 -8.86083984 120.13183594 C-9.84760404 118.78326881 -10.8499317 117.44591112 -11.86962891 116.12207031 C-15.00933812 111.76623744 -15.90783176 108.5656769 -15.75830078 103.19433594 C-15.375 101.25 -15.375 101.25 -13.25 98.6875 C-9.86660462 96.99580231 -8.10675586 96.62804069 -4.375 97.25 C-1.20003812 99.34258851 0.50960857 101.07691286 2.625 104.25 C2.955 75.54 3.285 46.83 3.625 17.25 C-2.645 17.25 -8.915 17.25 -15.375 17.25 C-20.375 12.25 -20.375 12.25 -20.9375 9.25 C-20.24706143 5.56766096 -19.00686072 3.88186072 -16.375 1.25 C-11.11059817 -0.50480061 -5.5098933 0.02291016 0 0 Z " fill="#FEFEFE" transform="translate(465.375,180.75)"/>
<path d="M0 0 C2.8125 1.5625 2.8125 1.5625 5 4 C5.92221353 7.44293053 6.36152612 9.8168236 5.3125 13.25 C3.78637767 15.28482978 2.05016622 16.5135251 0 18 C0.90415901 18.00546844 0.90415901 18.00546844 1.82658386 18.01104736 C8.10491378 18.05288392 14.38251343 18.12223768 20.66040039 18.20751953 C23.00277398 18.23573113 25.34524281 18.25694468 27.68774414 18.27099609 C31.05664839 18.29242224 34.42440737 18.33907316 37.79296875 18.390625 C38.83897751 18.39185364 39.88498627 18.39308228 40.96269226 18.39434814 C45.41526576 18.4838802 48.23584679 18.55750488 52.1418457 20.81933594 C54.71284357 23.83656797 54.93003663 26.08205133 55 30 C53.89791992 33.39808026 53.07902124 33.94731917 50 36 C47.70307922 36.2784729 47.70307922 36.2784729 44.9777832 36.31884766 C43.95695145 36.33871735 42.93611969 36.35858704 41.88435364 36.37905884 C40.23423531 36.39638565 40.23423531 36.39638565 38.55078125 36.4140625 C37.4230278 36.43342865 36.29527435 36.4527948 35.13334656 36.4727478 C31.52647497 36.53259307 27.91957156 36.57894922 24.3125 36.625 C21.8691266 36.66317518 19.42576672 36.70222664 16.98242188 36.7421875 C10.98840116 36.8382987 4.99429921 36.92333178 -1 37 C-0.03320312 37.7528125 0.93359375 38.505625 1.9296875 39.28125 C4.65006287 41.39951562 4.99406684 41.98154129 6.125 45.5 C5.97404424 49.72676136 4.9912799 51.09418524 2 54 C-0.88878588 55.44439294 -2.77922567 55.31783177 -6 55 C-8.52418475 53.67923739 -10.71710402 52.37047756 -13.04296875 50.765625 C-14.01838371 50.11397369 -14.01838371 50.11397369 -15.01350403 49.44915771 C-16.3818267 48.53091968 -17.74567411 47.60598159 -19.10522461 46.67480469 C-21.18151368 45.25409616 -23.27172815 43.85611671 -25.36523438 42.4609375 C-26.6961906 41.56380134 -28.02629863 40.66540528 -29.35546875 39.765625 C-29.97737595 39.34879456 -30.59928314 38.93196411 -31.24003601 38.50250244 C-34.40690474 36.3217106 -37.04938257 34.3507434 -39 31 C-39.5 27.5625 -39.5 27.5625 -39 24 C-35.35243683 19.76412019 -31.0440056 16.76933264 -26.4375 13.6875 C-25.73512207 13.21401123 -25.03274414 12.74052246 -24.30908203 12.25268555 C-22.88444619 11.29273154 -21.45867578 10.33445902 -20.03173828 9.37792969 C-18.16686054 8.11316521 -16.32805239 6.81961154 -14.49609375 5.5078125 C-13.46613281 4.78335937 -12.43617188 4.05890625 -11.375 3.3125 C-10.47523438 2.66925781 -9.57546875 2.02601563 -8.6484375 1.36328125 C-5.49412635 -0.26039809 -3.50397997 -0.37594283 0 0 Z " fill="#FEFEFE" transform="translate(172,331)"/>
<path d="M0 0 C0.75792847 -0.0038269 1.51585693 -0.00765381 2.29675293 -0.01159668 C3.89364964 -0.01430955 5.49059126 -0.00699203 7.08740234 0.00976562 C9.52412494 0.03118736 11.95789976 0.00994611 14.39453125 -0.015625 C15.9505273 -0.01298161 17.50652153 -0.00785639 19.0625 0 C19.78659058 -0.00809692 20.51068115 -0.01619385 21.25671387 -0.02453613 C24.80503183 0.04085236 26.91190589 0.45875421 29.96679688 2.31445312 C34.77253622 7.47482603 33.21731196 15.13321476 33.21655273 21.80297852 C33.21873914 23.95804599 33.23691506 26.1126011 33.25585938 28.26757812 C33.25879381 29.64583159 33.26077827 31.02408748 33.26171875 32.40234375 C33.26582764 33.64943115 33.26993652 34.89651855 33.27416992 36.18139648 C32.96874206 40.39323132 32.44134259 43.25083027 29.25283813 46.14611816 C26.67567505 47.75294644 25.2630981 47.91566065 22.25024414 47.93530273 C21.30568863 47.94798691 20.36113312 47.96067108 19.38795471 47.97373962 C18.37434372 47.97080399 17.36073273 47.96786835 16.31640625 47.96484375 C15.26851425 47.9700856 14.22062225 47.97532745 13.14097595 47.98072815 C10.92610561 47.98714806 8.71120117 47.98581177 6.49633789 47.97729492 C3.10957015 47.96878973 -0.27550846 47.99754057 -3.66210938 48.02929688 C-5.81510366 48.03090911 -7.96810093 48.03033093 -10.12109375 48.02734375 C-11.63847389 48.04419472 -11.63847389 48.04419472 -13.18650818 48.06138611 C-17.56078724 48.018087 -20.25224917 47.94134878 -24.10302734 45.73730469 C-26.42099559 42.99650894 -26.73617284 40.90684464 -26.52880859 37.35400391 C-25.40672512 31.69858581 -23.03343354 26.49284236 -20.68920898 21.25463867 C-19.77949436 19.21481339 -18.90306173 17.16286368 -18.02929688 15.10742188 C-17.45504841 13.79342858 -16.87893967 12.48024636 -16.30078125 11.16796875 C-15.78233643 9.98936279 -15.2638916 8.81075684 -14.72973633 7.59643555 C-11.02664748 1.15081229 -7.15973068 -0.08006152 0 0 Z M0.03125 17.53125 C-1.61875 21.82125 -3.26875 26.11125 -4.96875 30.53125 C1.96125 30.53125 8.89125 30.53125 16.03125 30.53125 C16.03125 26.24125 16.03125 21.95125 16.03125 17.53125 C10.75125 17.53125 5.47125 17.53125 0.03125 17.53125 Z " fill="#FEFEFE" transform="translate(268.96875,378.46875)"/>
<path d="M0 0 C0.9861026 -0.0098568 0.9861026 -0.0098568 1.99212646 -0.01991272 C4.15881476 -0.03955992 6.32543422 -0.05128556 8.4921875 -0.0612793 C9.60451752 -0.06739259 9.60451752 -0.06739259 10.73931885 -0.07362938 C14.66019407 -0.09444791 18.58103467 -0.10877093 22.50195312 -0.11816406 C26.55075301 -0.1292536 30.59900711 -0.16369398 34.64761353 -0.20333576 C37.7634382 -0.22946275 40.87913156 -0.23785208 43.99505615 -0.24144554 C45.48781036 -0.24631731 46.98055848 -0.25794821 48.47320557 -0.27648354 C50.56070615 -0.30080621 52.64677642 -0.29992443 54.734375 -0.29296875 C55.92144043 -0.29883499 57.10850586 -0.30470123 58.33154297 -0.31074524 C61.97721246 0.27501671 63.13931624 1.29263534 65.3671875 4.17700195 C65.8984375 6.17700195 65.8984375 6.17700195 65.8671875 8.17700195 C65.88265625 9.16700195 65.88265625 9.16700195 65.8984375 10.17700195 C65.12122264 13.1029873 63.69001075 14.27144988 61.3671875 16.17700195 C58.7068634 16.68252563 58.7068634 16.68252563 55.63989258 16.69116211 C53.91208305 16.71105698 53.91208305 16.71105698 52.14936829 16.73135376 C50.90769394 16.72630829 49.66601959 16.72126282 48.38671875 16.71606445 C46.42665017 16.7340869 44.46658162 16.75211913 42.50651836 16.7707119 C39.7599956 16.79196801 37.01356199 16.79534904 34.26696777 16.79864502 C29.4821255 16.80634039 24.69743944 16.83353992 19.9127655 16.87362671 C17.36848256 16.89315226 14.82409641 16.90260301 12.27973938 16.90054321 C2.71876574 16.95752519 -6.47526929 17.09382283 -13.6328125 24.17700195 C-18.76640922 30.99579151 -18.86239845 38.17572089 -18.97460938 46.38208008 C-19.11254853 49.79848001 -19.3930478 51.84739078 -21.42578125 54.6418457 C-24.40627077 56.71500036 -26.20236715 56.74892379 -29.73046875 56.5715332 C-32.66410045 55.96312088 -33.92671617 54.56553681 -35.6328125 52.17700195 C-38.73936965 42.85733051 -36.81061225 31.26837644 -33.6328125 22.17700195 C-31.96267946 18.85191889 -30.00824816 16.03424767 -27.6328125 13.17700195 C-27.106875 12.54020508 -26.5809375 11.9034082 -26.0390625 11.24731445 C-19.01793385 3.53069665 -10.25995097 0.08508469 0 0 Z " fill="#FFFEFF" transform="translate(211.6328125,7.822998046875)"/>
<path d="M0 0 C0.69371201 -0.00241196 1.38742401 -0.00482391 2.10215759 -0.00730896 C3.56205997 -0.00633343 5.02200068 0.00699051 6.48168945 0.03198242 C8.71237987 0.06636827 10.93912061 0.05261422 13.16992188 0.03320312 C14.59246472 0.04010046 16.01499738 0.04977185 17.4375 0.0625 C18.725354 0.07337646 20.01320801 0.08425293 21.34008789 0.09545898 C25.1805689 0.71397826 26.34991982 1.55424075 28.65234375 4.62890625 C30.40714436 9.89330808 29.87943359 15.49401295 29.90234375 21.00390625 C29.92296875 22.23625 29.94359375 23.46859375 29.96484375 24.73828125 C29.97257812 26.52105469 29.97257812 26.52105469 29.98046875 28.33984375 C29.9944873 29.96865479 29.9944873 29.96865479 30.00878906 31.63037109 C29.49103776 35.98586525 27.71020787 38.57104213 24.65234375 41.62890625 C20.12815991 42.02960746 15.58929283 41.95789524 11.04931641 41.94458008 C8.79279964 41.94142784 6.53760382 41.96484608 4.28125 41.99023438 C2.84505374 41.9925082 1.40885395 41.99321048 -0.02734375 41.9921875 C-1.33429199 41.99516846 -2.64124023 41.99814941 -3.98779297 42.0012207 C-7.51412506 41.61045945 -8.91171738 41.15562776 -11.34765625 38.62890625 C-13.03953347 33.5532746 -12.65173283 28.17218795 -12.69775391 22.85986328 C-12.71431513 21.45930364 -12.7416085 20.05882859 -12.77978516 18.65869141 C-12.83474132 16.6300923 -12.8564493 14.60346328 -12.87109375 12.57421875 C-12.90082275 10.75688232 -12.90082275 10.75688232 -12.93115234 8.90283203 C-11.60640275 1.46982282 -6.92035826 -0.00389294 0 0 Z M4.65234375 17.62890625 C4.65234375 19.93890625 4.65234375 22.24890625 4.65234375 24.62890625 C7.29234375 24.62890625 9.93234375 24.62890625 12.65234375 24.62890625 C12.65234375 22.31890625 12.65234375 20.00890625 12.65234375 17.62890625 C10.01234375 17.62890625 7.37234375 17.62890625 4.65234375 17.62890625 Z " fill="#FFFEFE" transform="translate(285.34765625,205.37109375)"/>
<path d="M0 0 C1.24494232 -0.01606293 2.48988464 -0.03212585 3.77255249 -0.04867554 C5.13302934 -0.06016167 6.49351384 -0.07077043 7.85400391 -0.08056641 C8.54006336 -0.08589008 9.22612282 -0.09121376 9.93297195 -0.09669876 C13.56321341 -0.12339543 17.19342087 -0.14278277 20.82373047 -0.15722656 C23.82501652 -0.17057393 26.82562394 -0.19844405 29.82666016 -0.23925781 C33.45471486 -0.28859385 37.0821535 -0.3133479 40.71052933 -0.32045364 C42.09084427 -0.32716146 43.47114571 -0.34237176 44.85126877 -0.36634445 C46.78471796 -0.39801699 48.71864017 -0.39502951 50.65234375 -0.390625 C52.30089859 -0.40275528 52.30089859 -0.40275528 53.98275757 -0.41513062 C57.9576029 0.39780856 59.45485415 2.06594016 61.95556641 5.19287109 C62.69847031 9.35313296 62.51906544 11.30279968 60.25366211 14.88110352 C55.83926101 18.99826613 49.17513198 17.79570477 43.56103516 17.68115234 C41.60729729 17.67054024 41.60729729 17.67054024 39.61408997 17.65971375 C36.16292757 17.64068622 32.71282902 17.59162548 29.26208496 17.53619385 C25.73623036 17.48490758 22.21020267 17.46217992 18.68408203 17.43701172 C11.77414172 17.38350007 4.86490523 17.29824082 -2.04443359 17.19287109 C-1.99802734 18.14548828 -1.95162109 19.09810547 -1.90380859 20.07958984 C-1.84966797 21.96097656 -1.84966797 21.96097656 -1.79443359 23.88037109 C-1.74802734 25.12173828 -1.70162109 26.36310547 -1.65380859 27.64208984 C-2.10691147 31.760795 -3.12102579 33.32257949 -6.04443359 36.19287109 C-8.26318359 36.85693359 -8.26318359 36.85693359 -10.54443359 36.81787109 C-11.67365234 36.83720703 -11.67365234 36.83720703 -12.82568359 36.85693359 C-16.27495755 35.82458047 -17.25580611 34.2859562 -19.04443359 31.19287109 C-19.58500035 28.19524922 -19.55881079 25.2932603 -19.48193359 22.25537109 C-19.48902344 21.4696875 -19.49611328 20.68400391 -19.50341797 19.87451172 C-19.44004633 14.04919557 -18.40162942 9.74828566 -14.32568359 5.32958984 C-13.73787109 4.85134766 -13.15005859 4.37310547 -12.54443359 3.88037109 C-11.95662109 3.38923828 -11.36880859 2.89810547 -10.76318359 2.39208984 C-7.29849735 -0.02531624 -4.08965974 0.04792467 0 0 Z " fill="#FFFFFF" transform="translate(215.04443359375,27.80712890625)"/>
<path d="M0 0 C0.69371201 -0.00241196 1.38742401 -0.00482391 2.10215759 -0.00730896 C3.56205997 -0.00633343 5.02200068 0.00699051 6.48168945 0.03198242 C8.71237987 0.06636827 10.93912061 0.05261422 13.16992188 0.03320312 C14.59246472 0.04010046 16.01499738 0.04977185 17.4375 0.0625 C18.725354 0.07337646 20.01320801 0.08425293 21.34008789 0.09545898 C24.65234375 0.62890625 24.65234375 0.62890625 27.07006836 2.19750977 C29.19475582 5.46240136 29.22796175 8.32416924 29.18359375 12.09765625 C29.18742065 12.81497925 29.19124756 13.53230225 29.19519043 14.2713623 C29.19790602 15.78427539 29.1905693 17.2972357 29.17382812 18.81005859 C29.15240926 21.12183601 29.17363726 23.43050638 29.19921875 25.7421875 C29.19657541 27.21485059 29.19145028 28.68751175 29.18359375 30.16015625 C29.19169067 30.84879761 29.1997876 31.53743896 29.20812988 32.24694824 C29.1463883 35.41746725 28.81156614 37.38423787 27.07006836 40.06030273 C23.75758678 42.20941857 21.37202874 42.16208376 17.4375 42.1953125 C16.39836708 42.20461037 16.39836708 42.20461037 15.33824158 42.21409607 C13.87663169 42.22118282 12.41494088 42.21803998 10.95336914 42.20532227 C8.72455195 42.1914666 6.49994627 42.2255175 4.27148438 42.26367188 C2.84765523 42.2646233 1.42382086 42.26276296 0 42.2578125 C-1.9334729 42.25890015 -1.9334729 42.25890015 -3.90600586 42.26000977 C-8.30595706 41.45318038 -9.75439584 40.24560605 -12.34765625 36.62890625 C-12.99462891 33.29492188 -12.99462891 33.29492188 -13.01171875 29.53515625 C-13.01650238 28.86601196 -13.02128601 28.19686768 -13.0262146 27.50744629 C-13.02960281 26.09885291 -13.02047547 24.69017973 -12.99951172 23.28173828 C-12.97271914 21.13394739 -12.99928391 18.99137972 -13.03125 16.84375 C-13.0279457 15.47004063 -13.02153901 14.09633449 -13.01171875 12.72265625 C-13.0060791 11.48193359 -13.00043945 10.24121094 -12.99462891 8.96289062 C-11.54992487 1.51803088 -7.00796769 -0.00394223 0 0 Z M4.65234375 17.62890625 C4.65234375 19.93890625 4.65234375 22.24890625 4.65234375 24.62890625 C6.96234375 24.62890625 9.27234375 24.62890625 11.65234375 24.62890625 C11.65234375 22.31890625 11.65234375 20.00890625 11.65234375 17.62890625 C9.34234375 17.62890625 7.03234375 17.62890625 4.65234375 17.62890625 Z " fill="#FEFEFE" transform="translate(376.34765625,205.37109375)"/>
<path d="M0 0 C0.69371201 -0.00241196 1.38742401 -0.00482391 2.10215759 -0.00730896 C3.56205997 -0.00633343 5.02200068 0.00699051 6.48168945 0.03198242 C8.71237987 0.06636827 10.93912061 0.05261422 13.16992188 0.03320312 C14.59246472 0.04010046 16.01499738 0.04977185 17.4375 0.0625 C18.725354 0.07337646 20.01320801 0.08425293 21.34008789 0.09545898 C24.65234375 0.62890625 24.65234375 0.62890625 27.06787109 2.19750977 C29.19285121 5.45832286 29.24591932 8.32539641 29.21875 12.09765625 C29.22804787 13.17364075 29.22804787 13.17364075 29.23753357 14.2713623 C29.24462072 15.78424729 29.24147683 17.29721045 29.22875977 18.81005859 C29.21488382 21.12222951 29.24898067 23.43035783 29.28710938 25.7421875 C29.28806057 27.21484474 29.2862017 28.68750703 29.28125 30.16015625 C29.29450821 30.84879761 29.30776642 31.53743896 29.32142639 32.24694824 C29.25365788 35.74793098 28.86486682 37.38236959 26.55639648 40.06030273 C22.99879104 41.98191812 20.59414291 42.15993593 16.55859375 42.1953125 C15.55487732 42.20461037 15.55487732 42.20461037 14.53088379 42.21409607 C13.12232918 42.22117005 11.71369054 42.21806244 10.30517578 42.20532227 C8.15760724 42.19144027 6.01438941 42.22556605 3.8671875 42.26367188 C2.49348852 42.26462311 1.11978413 42.26276402 -0.25390625 42.2578125 C-1.49462891 42.2585376 -2.73535156 42.2592627 -4.01367188 42.26000977 C-8.33776781 41.44148399 -9.78401769 40.17725169 -12.34765625 36.62890625 C-12.99462891 33.29492188 -12.99462891 33.29492188 -13.01171875 29.53515625 C-13.01650238 28.86601196 -13.02128601 28.19686768 -13.0262146 27.50744629 C-13.02960281 26.09885291 -13.02047547 24.69017973 -12.99951172 23.28173828 C-12.97271914 21.13394739 -12.99928391 18.99137972 -13.03125 16.84375 C-13.0279457 15.47004063 -13.02153901 14.09633449 -13.01171875 12.72265625 C-13.0060791 11.48193359 -13.00043945 10.24121094 -12.99462891 8.96289062 C-11.54992487 1.51803088 -7.00796769 -0.00394223 0 0 Z M4.65234375 17.62890625 C4.65234375 19.93890625 4.65234375 22.24890625 4.65234375 24.62890625 C6.96234375 24.62890625 9.27234375 24.62890625 11.65234375 24.62890625 C11.65234375 22.31890625 11.65234375 20.00890625 11.65234375 17.62890625 C9.34234375 17.62890625 7.03234375 17.62890625 4.65234375 17.62890625 Z " fill="#FFFFFF" transform="translate(376.34765625,125.37109375)"/>
</svg>
